<?xml version="1.0" encoding="UTF-8"?>
<svg width="48px" height="48px" viewBox="0 0 48 48" version="1.1" xmlns="http://www.w3.org/2000/svg" xmlns:xlink="http://www.w3.org/1999/xlink">
    <!-- Generator: Sketch 61 (89581) - https://sketch.com -->
    <title>Group 6</title>
    <desc>Created with Sketch.</desc>
    <g id="Dashboard" stroke="none" stroke-width="1" fill="none" fill-rule="evenodd">
        <g id="Dashboard-errors" transform="translate(-219.000000, -311.000000)">
            <g id="Group-6" transform="translate(219.000000, 311.000000)">
                <g id="Group-20-Copy" stroke="#FFFFFF" stroke-width="4">
                    <g id="Group-10-Copy-9">
                        <circle id="Oval" cx="24" cy="24" r="22"></circle>
                    </g>
                </g>
                <path d="M26.1071429,27.953125 L27.0602679,12.59375 L20.6696429,12.59375 L21.6227679,27.953125 L26.1071429,27.953125 Z M23.8571429,35.3125 C24.7321429,35.3125 25.4587054,35.0364532 26.0368304,34.484375 C26.6149554,33.9322968 26.9040179,33.25 26.9040179,32.4375 C26.9040179,31.625 26.6149554,30.9427032 26.0368304,30.390625 C25.4587054,29.8385468 24.7321429,29.5625 23.8571429,29.5625 C22.9821429,29.5625 22.2581896,29.8385468 21.6852679,30.390625 C21.1123461,30.9427032 20.8258929,31.625 20.8258929,32.4375 C20.8258929,33.25 21.1123461,33.9322968 21.6852679,34.484375 C22.2581896,35.0364532 22.9821429,35.3125 23.8571429,35.3125 Z" id="!" fill="#FFFFFF" fill-rule="nonzero"></path>
            </g>
        </g>
    </g>
</svg>
